# 3ds Max Wavefront OBJ Exporter v0.99 - (c)2007 guruware
# File Created: 27.08.2023 18:41:00

mtllib low.mtl

#
# object box
#

v  1.0034 1.3236 -0.3019
v  0.0368 1.3238 -0.3024
v  0.0350 1.3798 -0.3026
v  1.0603 1.3788 -0.3024
v  1.0601 0.6987 -0.3025
v  1.0033 0.6968 -0.3020
v  0.0381 -0.0275 -0.3021
v  0.0367 0.0277 -0.3020
v  1.0032 0.0279 -0.3014
v  1.0599 -0.0271 -0.3020
v  -1.0021 0.6972 -0.3010
v  -1.0022 0.6386 -0.3011
v  -1.0602 0.6374 -0.3023
v  -1.0602 0.7001 -0.3023
v  0.0144 -0.0275 -0.3021
v  0.0143 0.0277 -0.3020
v  -1.0014 0.0275 -0.2996
v  -1.0594 -0.0278 -0.3017
v  0.0118 1.3238 -0.3024
v  0.0085 1.3799 -0.3026
v  -0.9965 1.3241 -0.3006
v  -1.0610 1.3809 -0.3019
v  1.0601 0.6366 -0.3025
v  1.0033 0.6396 -0.3019
v  0.0379 0.6391 -0.3020
v  0.0379 0.6970 -0.3021
v  0.0129 0.6391 -0.3020
v  0.0129 0.6970 -0.3022
v  1.0001 0.6977 0.3023
v  0.9992 1.3210 0.3023
v  0.0384 1.3205 0.3023
v  0.0392 0.7027 0.3023
v  0.0118 0.7019 0.2953
v  0.0108 1.3190 0.3023
v  -0.9988 0.6989 0.3023
v  -0.9992 1.3233 0.3023
v  0.9994 0.6364 0.3023
v  0.0399 0.6348 0.3023
v  0.0386 0.0313 0.3023
v  1.0001 0.0337 0.2936
v  0.0121 0.0324 0.3023
v  0.0119 0.6351 0.3023
v  -0.9991 0.6384 0.3023
v  -0.9975 0.0310 0.3023
v  1.0631 1.3798 0.3173
v  -1.0622 1.3804 0.3154
v  1.0625 -0.0283 0.3153
v  -1.0623 -0.0269 0.3132
# 48 vertices

vn -0.0045 -0.0046 -1.0000
vn 0.0001 -0.0025 -1.0000
vn 0.0002 -0.0036 -1.0000
vn -0.0046 -0.0046 -1.0000
vn -0.0093 -0.0004 -1.0000
vn -0.0060 -0.0008 -1.0000
vn 0.0002 0.0030 -1.0000
vn 0.0002 0.0019 -1.0000
vn -0.0062 0.0058 -1.0000
vn -0.0064 0.0058 -1.0000
vn 0.0142 0.0004 -0.9999
vn 0.0142 -0.0006 -0.9999
vn 0.0223 -0.0010 -0.9998
vn 0.0217 0.0005 -0.9998
vn -0.0012 0.0034 -1.0000
vn -0.0008 0.0018 -1.0000
vn 0.0175 0.0181 -0.9997
vn 0.0185 0.0177 -0.9997
vn -0.0006 -0.0025 -1.0000
vn -0.0010 -0.0039 -1.0000
vn 0.0099 -0.0119 -0.9999
vn 0.0112 -0.0108 -0.9999
vn -0.0099 -0.0007 -1.0000
vn -0.0064 -0.0010 -1.0000
vn 0.0007 -0.0017 -1.0000
vn 0.0002 -0.0018 -1.0000
vn 0.0002 -0.0016 -1.0000
vn -0.0002 -0.0016 -1.0000
vn -1.0000 -0.0007 -0.0062
vn -1.0000 0.0002 -0.0053
vn -1.0000 -0.0006 -0.0061
vn -1.0000 -0.0015 -0.0070
vn 0.0003 -1.0000 -0.0048
vn 0.0005 -1.0000 -0.0044
vn 0.0001 -1.0000 -0.0052
vn -0.0002 -1.0000 -0.0056
vn 1.0000 0.0015 -0.0024
vn 1.0000 0.0012 -0.0027
vn 1.0000 0.0017 -0.0021
vn 0.0034 1.0000 -0.0066
vn 0.0052 0.9999 -0.0095
vn 0.0020 1.0000 -0.0043
vn 0.0002 1.0000 -0.0015
vn 0.0000 -0.0000 -1.0000
vn 0.0000 0.0000 -1.0000
vn -0.0000 -0.0000 -1.0000
vn -1.0000 -0.0017 -0.0018
vn -1.0000 -0.0017 -0.0019
vn -1.0000 -0.0016 -0.0018
vn -0.0009 1.0000 -0.0048
vn -0.0030 1.0000 -0.0083
vn -0.0019 1.0000 -0.0064
vn 0.0002 1.0000 -0.0029
vn 1.0000 -0.0044 -0.0004
vn 1.0000 0.0005 -0.0054
vn 1.0000 -0.0042 -0.0006
vn 0.9999 -0.0090 0.0045
vn -0.0016 -1.0000 -0.0057
vn -0.0042 -1.0000 -0.0013
vn -0.0029 -1.0000 -0.0036
vn -0.0002 -1.0000 -0.0080
vn -0.0045 0.0040 -1.0000
vn 0.0000 0.0114 -0.9999
vn -0.0024 0.0073 -1.0000
vn -0.0069 -0.0000 -1.0000
vn 0.0012 -1.0000 -0.0065
vn 0.0005 -1.0000 -0.0054
vn 0.0009 -1.0000 -0.0060
vn 0.0016 -1.0000 -0.0072
vn 1.0000 -0.0020 -0.0033
vn 1.0000 -0.0021 -0.0034
vn 1.0000 -0.0019 -0.0032
vn -0.0017 1.0000 -0.0072
vn -0.0025 1.0000 -0.0059
vn -0.0010 1.0000 -0.0084
vn -0.0002 1.0000 -0.0097
vn -1.0000 -0.0005 -0.0059
vn -1.0000 0.0002 -0.0052
vn -1.0000 -0.0011 -0.0065
vn -0.0059 0.0052 -1.0000
vn -0.0000 0.0145 -0.9999
vn -0.0033 0.0093 -1.0000
vn -0.0091 0.0000 -1.0000
vn -1.0000 -0.0014 -0.0026
vn -1.0000 -0.0023 -0.0036
vn -1.0000 -0.0014 -0.0027
vn -1.0000 -0.0004 -0.0017
vn -0.0020 -1.0000 -0.0045
vn -0.0033 -1.0000 -0.0067
vn -0.0008 -1.0000 -0.0025
vn 0.0005 -1.0000 -0.0003
vn 1.0000 0.0019 -0.0058
vn 1.0000 0.0025 -0.0051
vn 1.0000 0.0012 -0.0065
vn -0.0000 0.0001 -1.0000
vn -0.0001 -0.0000 -1.0000
vn -0.0001 0.0000 -1.0000
vn -0.0006 1.0000 -0.0065
vn -0.0014 1.0000 -0.0078
vn -0.0010 1.0000 -0.0071
vn -0.0002 1.0000 -0.0058
vn 0.0007 1.0000 -0.0011
vn 0.0010 1.0000 -0.0015
vn 0.0009 1.0000 -0.0015
vn -1.0000 -0.0006 -0.0026
vn -1.0000 -0.0012 -0.0019
vn -1.0000 -0.0005 -0.0033
vn 1.0000 -0.0003 -0.0042
vn 0.0003 -1.0000 0.0014
vn 0.0000 -1.0000 0.0008
vn -0.0009 -0.0015 1.0000
vn -0.0009 -0.0016 1.0000
vn -0.0010 -0.0015 1.0000
vn 0.0005 1.0000 -0.0003
vn 0.0007 1.0000 0.0004
vn 0.0010 1.0000 0.0008
vn -1.0000 -0.0012 -0.0048
vn -1.0000 -0.0006 -0.0041
vn -1.0000 -0.0011 -0.0047
vn -0.0003 -1.0000 -0.0003
vn 0.0003 -1.0000 -0.0018
vn -0.0000 -1.0000 -0.0013
vn 1.0000 -0.0004 -0.0043
vn 1.0000 -0.0003 -0.0044
vn 1.0000 -0.0003 -0.0045
# 125 vertex normals

vt 0.1155 0.3301 0.0000
vt 0.2740 0.3301 0.0000
vt 0.2743 0.3393 0.0000
vt 0.1062 0.3392 0.0000
vt 0.1062 0.2277 0.0000
vt 0.1155 0.2273 0.0000
vt 0.2737 0.1085 0.0000
vt 0.2739 0.1176 0.0000
vt 0.1154 0.1177 0.0000
vt 0.1061 0.1086 0.0000
vt 0.4443 0.2273 0.0000
vt 0.4443 0.2177 0.0000
vt 0.4538 0.2175 0.0000
vt 0.4538 0.2278 0.0000
vt 0.2776 0.1085 0.0000
vt 0.2776 0.1176 0.0000
vt 0.4442 0.1175 0.0000
vt 0.4537 0.1084 0.0000
vt 0.2781 0.3301 0.0000
vt 0.2782 0.3393 0.0000
vt 0.4450 0.3280 0.0000
vt 0.4539 0.3337 0.0000
vt 0.1062 0.2175 0.0000
vt 0.1155 0.2180 0.0000
vt 0.2738 0.2178 0.0000
vt 0.2738 0.2273 0.0000
vt 0.2779 0.2178 0.0000
vt 0.2779 0.2273 0.0000
vt 0.3707 0.5555 0.0000
vt 0.3705 0.4438 0.0000
vt 0.4782 0.4438 0.0000
vt 0.4784 0.5548 0.0000
vt 0.4777 0.6625 0.0000
vt 0.6495 0.5547 0.0000
vt 0.6499 0.6624 0.0000
vt 0.7573 0.5551 0.0000
vt 0.6494 0.4446 0.0000
vt 0.7571 0.4435 0.0000
vt 0.6501 0.3369 0.0000
vt 0.4781 0.3361 0.0000
vt 0.4050 0.5567 0.0000
vt 0.4042 0.6684 0.0000
vt 0.2977 0.6668 0.0000
vt 0.2972 0.5569 0.0000
vt 0.1177 0.6679 0.0000
vt 0.2993 0.7733 0.0000
vt 0.1185 0.7754 0.0000
vt 0.1173 0.5567 0.0000
vt 0.0102 0.6686 0.0000
vt 0.0099 0.5569 0.0000
vt 0.1179 0.4493 0.0000
vt 0.2975 0.4492 0.0000
vt 0.8721 0.9920 0.0000
vt 0.7001 0.9928 0.0000
vt 0.7002 0.8852 0.0000
vt 0.8712 0.8843 0.0000
vt 0.9788 0.8850 0.0000
vt 0.8711 0.7768 0.0000
vt 0.9787 0.7761 0.0000
vt 0.8698 0.6717 0.0000
vt 0.6998 0.7778 0.0000
vt 0.6977 0.6718 0.0000
vt 0.5926 0.8847 0.0000
vt 0.5933 0.7778 0.0000
vt 0.5882 0.7777 0.0000
vt 0.5881 0.8867 0.0000
vt 0.4804 0.8857 0.0000
vt 0.4805 0.7783 0.0000
vt 0.4813 0.6707 0.0000
vt 0.3004 0.7774 0.0000
vt 0.3004 0.6699 0.0000
vt 0.1929 0.7775 0.0000
vt 0.3005 0.8856 0.0000
vt 0.1933 0.8864 0.0000
vt 0.4808 0.9933 0.0000
vt 0.2998 0.9929 0.0000
vt 0.1057 0.4408 0.0000
vt 0.5532 0.3330 0.0000
vt 0.0049 0.1085 0.0000
vt 0.4541 0.0076 0.0000
vt 0.9944 0.3191 0.0000
vt 0.9944 0.6628 0.0000
vt 0.7668 0.6628 0.0000
vt 0.7667 0.3191 0.0000
vt 0.4542 0.4406 0.0000
vt 0.5545 0.1084 0.0000
vt 0.1057 0.0074 0.0000
vt 0.0046 0.3393 0.0000
# 88 texture coords

o box
g box
usemtl Box
s 1
f 1/1/1 2/2/2 3/3/3 
f 3/3/3 4/4/4 1/1/1 
f 5/5/5 6/6/6 1/1/1 
f 1/1/1 4/4/4 5/5/5 
f 7/7/7 8/8/8 9/9/9 
f 9/9/9 10/10/10 7/7/7 
f 11/11/11 12/12/12 13/13/13 
f 13/13/13 14/14/14 11/11/11 
f 15/15/15 16/16/16 8/8/8 
f 8/8/8 7/7/7 15/15/15 
f 17/17/17 16/16/16 15/15/15 
f 15/15/15 18/18/18 17/17/17 
f 19/19/19 20/20/20 3/3/3 
f 3/3/3 2/2/2 19/19/19 
f 20/20/20 19/19/19 21/21/21 
f 21/21/21 22/22/22 20/20/20 
f 5/5/5 23/23/23 24/24/24 
f 24/24/24 6/6/6 5/5/5 
f 9/9/9 24/24/24 23/23/23 
f 23/23/23 10/10/10 9/9/9 
f 21/21/21 11/11/11 14/14/14 
f 14/14/14 22/22/22 21/21/21 
f 13/13/13 12/12/12 17/17/17 
f 17/17/17 18/18/18 13/13/13 
f 25/25/25 26/26/26 6/6/6 
f 6/6/6 24/24/24 25/25/25 
f 27/27/27 28/28/28 26/26/26 
f 26/26/26 25/25/25 27/27/27 
f 28/28/28 27/27/27 12/12/12 
f 12/12/12 11/11/11 28/28/28 
f 19/19/19 2/2/2 26/26/26 
f 26/26/26 28/28/28 19/19/19 
f 27/27/27 25/25/25 8/8/8 
f 8/8/8 16/16/16 27/27/27 
s 2
f 1/29/29 6/30/30 29/31/31 
f 29/31/31 30/32/32 1/29/29 
s 4
f 1/33/33 30/32/34 31/34/35 
f 31/34/35 2/35/36 1/33/33 
s 2
f 2/36/37 31/34/38 32/37/37 
f 32/37/37 26/38/39 2/36/37 
s 4
f 26/39/40 32/37/41 29/31/42 
f 29/31/42 6/40/43 26/39/40 
s 1
f 31/34/44 30/32/45 29/31/45 
f 29/31/45 32/37/46 31/34/44 
s 2
f 19/41/47 28/42/48 33/43/47 
f 33/43/47 34/44/49 19/41/47 
s 4
f 35/45/50 33/43/51 28/46/52 
f 28/46/52 11/47/53 35/45/50 
s 2
f 36/48/54 35/45/55 11/49/56 
f 11/49/56 21/50/57 36/48/54 
s 4
f 34/44/58 36/48/59 21/51/60 
f 21/51/60 19/52/61 34/44/58 
s 1
f 36/48/62 34/44/63 33/43/64 
f 33/43/64 35/45/65 36/48/62 
s 2
f 25/53/66 24/54/67 37/55/68 
f 37/55/68 38/56/69 25/53/66 
s 4
f 25/57/70 38/56/71 39/58/70 
f 39/58/70 8/59/72 25/57/70 
s 2
f 8/60/73 39/58/74 40/61/75 
f 40/61/75 9/62/76 8/60/73 
s 4
f 24/63/77 9/64/78 40/61/77 
f 40/61/77 37/55/79 24/63/77 
s 1
f 38/56/80 37/55/81 40/61/82 
f 40/61/82 39/58/83 38/56/80 
s 2
f 27/65/84 16/66/85 41/67/86 
f 41/67/86 42/68/87 27/65/84 
s 4
f 27/69/88 42/68/89 43/70/90 
f 43/70/90 12/71/91 27/69/88 
s 2
f 12/72/92 43/70/93 44/73/92 
f 44/73/92 17/74/94 12/72/92 
s 1
f 41/67/95 44/73/96 43/70/97 
f 43/70/97 42/68/95 41/67/95 
s 4
f 44/73/98 41/67/99 16/75/100 
f 16/75/100 17/76/101 44/73/98 
s 2
f 45/77/102 4/4/103 3/3/104 
s 4
f 46/78/105 22/22/106 14/14/107 
f 47/79/108 10/10/108 23/23/108 
s 2
f 15/15/109 48/80/110 18/18/109 
s 1
f 45/81/111 46/82/112 48/83/111 
f 48/83/111 47/84/113 45/81/111 
s 2
f 20/20/114 46/85/115 45/77/102 
f 45/77/102 3/3/104 20/20/114 
f 20/20/114 22/22/116 46/85/115 
s 4
f 14/14/107 13/13/117 48/86/118 
f 48/86/118 46/78/105 14/14/107 
f 13/13/117 18/18/119 48/86/118 
s 2
f 7/7/120 10/10/121 47/87/122 
s 4
f 5/5/123 45/88/124 47/79/108 
f 47/79/108 23/23/108 5/5/123 
f 5/5/123 4/4/125 45/88/124 
s 2
f 7/7/120 47/87/122 48/80/110 
f 48/80/110 15/15/109 7/7/120 
# 92 faces

